<svg width="20" height="30" viewBox="0 0 20 30" fill="none" xmlns="http://www.w3.org/2000/svg">
<path fill-rule="evenodd" clip-rule="evenodd" d="M12 1H8C4.13401 1 1 4.13401 1 8V22C1 25.866 4.13401 29 8 29H12C15.866 29 19 25.866 19 22V8C19 4.13401 15.866 1 12 1ZM8 0C3.58172 0 0 3.58172 0 8V22C0 26.4183 3.58172 30 8 30H12C16.4183 30 20 26.4183 20 22V8C20 3.58172 16.4183 0 12 0H8Z" fill="white"/>
<path d="M12 9C12 10.1046 11.1046 11 10 11C8.89543 11 8 10.1046 8 9C8 7.89543 8.89543 7 10 7C11.1046 7 12 7.89543 12 9Z" fill="white"/>
</svg>
