<svg xmlns="http://www.w3.org/2000/svg" xmlns:xlink="http://www.w3.org/1999/xlink" viewBox="0,0,256,256" width="48px" height="48px"><g fill="#ffffff" fill-rule="nonzero" stroke="none" stroke-width="1" stroke-linecap="butt" stroke-linejoin="miter" stroke-miterlimit="10" stroke-dasharray="" stroke-dashoffset="0" font-family="none" font-weight="none" font-size="none" text-anchor="none" style="mix-blend-mode: normal"><g transform="scale(5.33333,5.33333)"><path d="M11.5,6c-3.01977,0 -5.5,2.48023 -5.5,5.5v25c0,3.01977 2.48023,5.5 5.5,5.5h25c3.01977,0 5.5,-2.48023 5.5,-5.5v-25c0,-3.01977 -2.48023,-5.5 -5.5,-5.5zM11.5,9h25c1.39823,0 2.5,1.10177 2.5,2.5v25c0,1.39823 -1.10177,2.5 -2.5,2.5h-25c-1.39823,0 -2.5,-1.10177 -2.5,-2.5v-25c0,-1.39823 1.10177,-2.5 2.5,-2.5zM13.81641,17.125c-0.699,0 -0.81641,0.34298 -0.81641,0.70898c0,0.661 0.55073,4.2338 3.55273,8.3418c2.177,2.979 5.04499,4.69727 7.58398,4.69727c1.538,0 1.69531,-0.38995 1.69531,-1.00195v-2.72461c0.001,-0.734 0.1692,-0.85547 0.6582,-0.85547c0.349,0 1.06055,0.22803 2.43555,1.83203c1.586,1.85 1.8742,2.75 2.7832,2.75h2.40039c0.557,0 0.87567,-0.23255 0.88867,-0.68555c0.003,-0.115 -0.01378,-0.24467 -0.05078,-0.38867c-0.178,-0.528 -0.99277,-1.82078 -2.00977,-3.05078c-0.564,-0.681 -1.12095,-1.3547 -1.37695,-1.7207c-0.171,-0.239 -0.23652,-0.40931 -0.22852,-0.57031c0.008,-0.17 0.09652,-0.32969 0.22852,-0.55469c-0.023,0 3.07786,-4.35622 3.38086,-5.82422c0.042,-0.138 0.06164,-0.26686 0.05664,-0.38086c-0.014,-0.332 -0.24034,-0.57227 -0.77734,-0.57227h-2.40039c-0.606,0 -0.88483,0.36737 -1.04883,0.73438c0,0 -1.4967,3.07937 -3.2207,5.10938c-0.559,0.588 -0.84348,0.57227 -1.14648,0.57227c-0.162,0 -0.57227,-0.19637 -0.57227,-0.73437v-4.75195c0,-0.636 -0.15792,-0.92969 -0.66992,-0.92969h-4.26172c-0.373,0 -0.56641,0.29289 -0.56641,0.58789c0,0.611 0.82397,0.7577 0.91797,2.4707v3.32227c0,0.807 -0.14036,0.95117 -0.44336,0.95117c-0.816,0 -2.42305,-2.74952 -3.49805,-6.35352c-0.233,-0.709 -0.46627,-0.97852 -1.07227,-0.97852z"></path></g></g></svg>